# xmcd
#
# Track frame offsets:
#	150
#	17138
#	38253
#	62052
#	79212
#	94920
#	113925
#	138929
#	161567
#	185000
#	202130
#	220423
#	230750
#	249301
#
# Disc length: 3706
#
# Revision: 2
# Processed by: cddbd v1.5.1PL0 Copyright (c) Steve Scherf et al.
# Submitted via: audiograbber 1.82.00
# Normalized: r1:TRMNUM
#
DISCID=c50e780e
DTITLE=DAVE HOLE - SHORT FUSE BLUES
DYEAR=1992
DGENRE=Blues
TTITLE0=KEEP YOUR MOTOR RUNNING
TTITLE1=THE BOTTLE
TTITLE2=SHORT FUSE BLUES
TTITLE3=EVERY GIRL I SEE
TTITLE4=TRAVELLING RIVERSIDE BLUES
TTITLE5=ALBATROSS
TTITLE6=NIGHT CAT
TTITLE7=TORE DOWN
TTITLE8=THE SUN IS SHINING
TTITLE9=PURPLE HAZE
TTITLE10=TRUCKLOAD OF LOVIN'
TTITLE11=DARK WAS THE NIGHT (COLD WAS THE GROUND)
TTITLE12=BUSINESS MAN
TTITLE13=TAKE A SWING
EXTD=
EXTT0=
EXTT1=
EXTT2=
EXTT3=
EXTT4=
EXTT5=
EXTT6=
EXTT7=
EXTT8=
EXTT9=
EXTT10=
EXTT11=
EXTT12=
EXTT13=
PLAYORDER=
